<svg enable-background="new 0 0 2795 2623" viewBox="0 0 2795 2623" xmlns="http://www.w3.org/2000/svg"><path d="m0-5h2795v2628h-2795z" fill="#151e39"/><path d="m795.5 1597.3v621.4" fill="none" stroke="#1bacfb" stroke-miterlimit="10" stroke-width="6"/><path d="m769 2219h55" fill="none" stroke="#1bacfb" stroke-miterlimit="10" stroke-width="6"/><path d="m768 1597h55" fill="none" stroke="#1bacfb" stroke-miterlimit="10" stroke-width="6"/><path d="m1837 2334h-932" fill="none" stroke="#1bacfb" stroke-miterlimit="10" stroke-width="6"/><path d="m905 2306v55" fill="none" stroke="#1bacfb" stroke-miterlimit="10" stroke-width="6"/><path d="m1837 2306v55" fill="none" stroke="#1bacfb" stroke-miterlimit="10" stroke-width="6"/><path d="m1458.3 846.5s10.4-9.2 18.2-16.5c7.7-7.3 9.4-11.8 9.4-16.8 0-4.2-2.9-7.9-8.2-7.9-4.7 0-8.2 2.8-8.2 7.3 0 1.6.4 3.6 1.6 6.4l-11.3 2c-1.8-3.6-2.3-6.5-2.3-9.5 0-8.6 7.2-17.1 20.3-17.1 13.5 0 20.6 8.8 20.6 18.1 0 7.3-2.4 14.3-17.4 27.5l-7.3 6.4h25.5v10.6h-41v-10.5z" fill="#1bacfb"/><path d="m1509.5 795.4h23.6v51h11.9v10.6h-36.2v-10.6h11.9v-40.4h-11.2z" fill="#1bacfb"/><path d="m1561.5 842.8c4.2 0 7.7 3.4 7.7 7.7s-3.4 7.7-7.7 7.7c-4.2 0-7.7-3.4-7.7-7.7s3.4-7.7 7.7-7.7z" fill="#1bacfb"/><path d="m1596.7 848c5.9 0 8.1-4.6 8.1-10.6 0-6.2-2.4-10.7-8.3-10.7-3.2 0-5.6 1.2-7 2.6l-10.3-1.1v-32.6h36.2v10.4h-25.4v12.8h.4c2.1-1.6 6.1-2.3 8.8-2.3 11.7 0 18.4 8.4 18.4 20.2 0 12.5-7.1 21.5-20.5 21.5-13.1 0-20.5-7.8-20.5-18.7v-2.7h12.5v2.6c-.1 4.4 1.8 8.6 7.6 8.6z" fill="#1bacfb"/><path d="m1678.6 833.4c0-4.9-3.2-7-6.7-7-3.3 0-6.2 1.8-8.4 4.6v26h-11.4v-23.7c0-4.8-3.1-7-6.7-7-3.3 0-6.2 1.8-8.4 4.6v26.1h-11.4v-40.3h11.2v1.6c0 1.4-.2 3.2-.2 3.2 3-3.7 7.5-5.8 12.1-5.8 6 0 10.6 2.6 12.9 7.3 3.3-4.7 7.9-7.3 13.6-7.3 8.7 0 14.9 5.5 14.9 15v26.3h-11.4v-23.6z" fill="#1bacfb"/><path d="m1303.1 2375.4h23.6v51h11.9v10.6h-36.2v-10.6h11.9v-40.4h-11.2z" fill="#1bacfb"/><path d="m1387 2391.7c0 5.5-3.2 10.9-8.8 13.4 6.1 2.4 10.1 8.4 10.1 14.8 0 11.3-8.7 18.2-21.3 18.2-12.7 0-21.3-7-21.3-18.2 0-6.4 4-12.5 10.1-14.8-5.7-2.5-8.9-7.9-8.9-13.4 0-10 7.8-17.3 20.1-17.3s20 7.3 20 17.3zm-11 27.6c0-4.5-3.1-8.7-9-8.7-6 0-9.1 4.2-9.1 8.7 0 4.6 3.1 8.7 9.1 8.7 5.9 0 9-4.2 9-8.7zm-1.1-26.7c0-4.4-2.4-8.1-7.9-8.1-5.6 0-8 3.7-8 8.1s2.4 8.2 8 8.2c5.5 0 7.9-3.8 7.9-8.2z" fill="#1bacfb"/><path d="m1448.6 2413.4c0-4.9-3.2-7-6.7-7-3.3 0-6.2 1.8-8.4 4.6v26.1h-11.4v-23.7c0-4.8-3.1-7-6.7-7-3.3 0-6.2 1.8-8.4 4.6v26.1h-11.4v-40.3h11.2v1.6c0 1.4-.2 3.2-.2 3.2 3-3.7 7.5-5.8 12.1-5.8 6 0 10.6 2.6 12.9 7.3 3.3-4.7 7.9-7.3 13.6-7.3 8.7 0 14.9 5.5 14.9 15v26.4h-11.4v-23.8z" fill="#1bacfb"/><path d="m2068.1 2237.5h-7.1v19.4h-10v-50.4h18.9c11 0 17.5 6.6 17.5 15.3 0 4.8-1.9 10.8-9.6 13.8l12.9 21.2h-11.5zm.6-22.4h-7.6v13.7h7.6c5.5 0 8.8-2.6 8.8-6.9 0-4.5-3.3-6.8-8.8-6.8z" fill="#1bacfb"/><path d="m2091.5 2240.4c0-10.1 7.8-17.4 17.6-17.4s17.6 7.3 17.6 17.4-7.8 17.4-17.6 17.4c-9.7-.1-17.6-7.4-17.6-17.4zm9.4 0c0 5.1 3.4 9 8.3 9 4.8 0 8.2-3.9 8.2-9 0-5.2-3.4-9-8.2-9-4.9 0-8.3 3.8-8.3 9z" fill="#1bacfb"/><path d="m2176.1 2237.5c0-4-2.6-5.8-5.5-5.8-2.7 0-5 1.5-6.8 3.7v21.4h-9.4v-19.4c0-4-2.5-5.8-5.5-5.8-2.7 0-5 1.5-6.8 3.7v21.4h-9.4v-33h9.1v1.3c0 1.2-.1 2.6-.1 2.6 2.4-3 6.1-4.8 9.9-4.8 4.9 0 8.7 2.1 10.6 6 2.7-3.8 6.5-6 11.1-6 7.1 0 12.2 4.5 12.2 12.2v21.6h-9.4z" fill="#1bacfb"/><path d="m2225.5 2243.1h-24.5c.5 3.7 3.4 6.6 7.6 6.6 2.7 0 5.3-1.2 6.6-3.4l9.7 1c-3 7.1-9.1 10.4-16.5 10.4-9.9 0-17.3-7.3-17.3-17.4s7.3-17.4 17.1-17.4c9.1 0 17.3 5.9 17.3 19.7zm-24.8-6.3h14.8c-.5-3.3-3.3-6-7.3-6s-6.7 2.5-7.5 6z" fill="#1bacfb"/><path d="m2236.7 2245.2c3.6 0 6.5 2.7 6.5 6.3 0 1-.4 2.7-.9 3.6l-5.7 10.6h-7.6l4.1-9.1c-1.7-1.1-2.7-3-2.7-5.1.1-3.5 2.8-6.3 6.3-6.3z" fill="#1bacfb"/><path d="m2266.3 2206.4h10v50.4h-10z" fill="#1bacfb"/><path d="m2297.4 2211.3v12.5h7.1v7.9h-7.1v14.9c0 2.1 1.7 2.4 3.1 2.4 2.4 0 4.3-.2 4.3-.2v8s-4.5.4-7.3.4c-4.7 0-9.5-.8-9.5-7.4v-18.1h-5.2v-7.9h5.2v-12.5z" fill="#1bacfb"/><path d="m2329.3 2234.9c0-2.4-1.9-3.9-5.5-3.9-3.3 0-7.5 1.7-9.9 3.1l-3.7-7.1s6.1-4 14.1-4c7.5 0 14.3 3.5 14.3 12.2v21.7h-9.4v-3.1c-1.7 2.6-5.5 4-9.2 4-7 0-11.5-5-11.5-10.4 0-6.3 4.6-10.2 12-10.2h6.5c1.6 0 2.3-.7 2.3-1.9zm0 10.1v-2.4c-.6.6-1.6.7-2.9.7h-3.5c-3 0-4.7 1.3-4.7 3.6 0 2.2 1.8 3.9 4.7 3.9 3.4.1 6.4-1.7 6.4-5.8z" fill="#1bacfb"/><path d="m2355.7 2256.8h-9.3v-50.4h9.3z" fill="#1bacfb"/><path d="m2374.2 2256.8h-2.4l-11.3-33h10.4l7 23.5 7.1-23.5h10.2l-13.2 38.2c-1.7 4.8-4.2 7.4-10.3 7.4h-6.5v-7.8h4.6c1.9 0 3-.7 3.7-2.6z" fill="#1bacfb"/><path d="m2073.8 2148.8h-19.6v-99.4h33.7c23.4 0 35.8 14.6 35.8 32.7 0 17.9-12.4 33.1-35.8 33.1h-14.1zm0-82.3v31.8h11.1c10.8 0 18.6-5.1 18.6-16.2s-7.8-15.6-18.6-15.6z" fill="#1bacfb"/><path d="m2168.3 2105.5c0-4.7-3.7-7.7-10.8-7.7-6.5 0-14.8 3.3-19.6 6.1l-7.2-13.9s12.1-8 27.8-8c14.8 0 28.3 6.8 28.3 24v42.7h-18.5v-6.1c-3.4 5.1-10.8 7.8-18.2 7.8-13.8 0-22.7-9.8-22.7-20.4 0-12.4 9.1-20 23.6-20h12.8c3.1 0 4.5-1.4 4.5-3.8zm0 20.1v-4.7c-1.1 1.1-3.1 1.4-5.7 1.4h-7c-5.8 0-9.2 2.6-9.2 7.1 0 4.4 3.5 7.7 9.2 7.7 6.8 0 12.7-3.5 12.7-11.5z" fill="#1bacfb"/><path d="m2239.6 2082.1c14.1 0 24.1 8.9 24.1 24.1v42.6h-18.5v-37.9c0-8.2-5.3-11.6-11.1-11.6-5.4 0-10.2 3-13.8 7.4v42.2h-18.3v-65h18v2.6c0 2.3-.3 5.1-.3 5.1 5-6.2 12.4-9.5 19.9-9.5z" fill="#1bacfb"/><path d="m2302.2 2059.1v24.7h14.1v15.6h-14.1v29.4c0 4.1 3.3 4.7 6.1 4.7 4.7 0 8.5-.4 8.5-.4v15.8s-8.9.9-14.3.9c-9.2 0-18.7-1.6-18.7-14.6v-35.6h-10.2v-15.6h10.2v-24.7h18.4z" fill="#1bacfb"/><path d="m2366.7 2082.1c14.1 0 24.1 8.9 24.1 24.1v42.6h-18.5v-37.9c0-8.2-5.3-11.6-11.1-11.6-5.4 0-10.2 3-13.8 7.4v42.2h-18.5v-99.4h18.2v36.9c0 2.3-.3 5.1-.3 5.1 5.1-6.1 12.5-9.4 19.9-9.4z" fill="#1bacfb"/><path d="m2469.8 2121.7h-48.4c1 7.2 6.7 13.1 14.9 13.1 5.4 0 10.5-2.3 13.1-6.7l19.2 2c-5.8 13.9-18 20.4-32.5 20.4-19.5 0-34.1-14.3-34.1-34.2s14.3-34.2 33.8-34.2c17.9 0 34.1 11.6 34.1 38.9v.7zm-48.9-12.3h29.1c-1-6.5-6.5-11.9-14.3-11.9-7.8-.1-13.3 4.9-14.8 11.9z" fill="#1bacfb"/><path d="m2476.6 2116.3c0-19.9 15.5-34.2 34.8-34.2s34.8 14.3 34.8 34.2-15.5 34.2-34.8 34.2-34.8-14.3-34.8-34.2zm18.5 0c0 10.1 6.7 17.8 16.3 17.8 9.5 0 16.2-7.7 16.2-17.8 0-10.2-6.7-17.8-16.2-17.8-9.7.1-16.3 7.6-16.3 17.8z" fill="#1bacfb"/><path d="m2595.6 2082.1c14.1 0 24.1 8.9 24.1 24.1v42.6h-18.5v-37.9c0-8.2-5.3-11.6-11.1-11.6-5.4 0-10.2 3-13.8 7.4v42.2h-18.3v-65h18v2.6c0 2.3-.3 5.1-.3 5.1 5-6.2 12.4-9.5 19.9-9.5z" fill="#1bacfb"/><path d="m592.1 1811.4h23.6v51h11.9v10.6h-36.2v-10.6h11.9v-40.4h-11.2z" fill="#1bacfb"/><path d="m655.6 1864c5.9 0 8.1-4.6 8.1-10.6 0-6.2-2.4-10.7-8.3-10.7-3.2 0-5.6 1.2-7 2.6l-10.3-1.1v-32.6h36.2v10.6h-25.4v12.8h.4c2.1-1.6 6.1-2.3 8.8-2.3 11.7 0 18.4 8.4 18.4 20.2 0 12.5-7.1 21.5-20.5 21.5-13.1 0-20.5-7.8-20.5-18.7v-2.7h12.5v2.6c0 4.2 1.9 8.4 7.6 8.4z" fill="#1bacfb"/><path d="m737.6 1849.4c0-4.9-3.2-7-6.7-7-3.3 0-6.2 1.8-8.4 4.6v26.1h-11.4v-23.7c0-4.8-3.1-7-6.7-7-3.3 0-6.2 1.8-8.4 4.6v26.1h-11.4v-40.3h11.2v1.6c0 1.4-.2 3.2-.2 3.2 3-3.7 7.5-5.8 12.1-5.8 6 0 10.6 2.6 12.9 7.3 3.3-4.7 7.9-7.3 13.6-7.3 8.7 0 14.9 5.5 14.9 15v26.4h-11.4v-23.8z" fill="#1bacfb"/><g fill="none" stroke-miterlimit="10"><path d="m1284.9 1493.5c-112.6-16-215.4-62.2-299.9-130.3-140.9-113.3-231.1-287.2-231.1-482.1 0-285.5 193.3-525.8 456.2-597.1v-73h83.3v14.7h183.9v-14.7h79.7l-.6 79.3c251.8 78.3 434.7 313.2 434.7 590.8 0 307.2-223.9 562.1-517.5 610.4v-107.2c206-41.2 367.5-205.7 404.2-413.4l4.3-1.6c34.6-18.5 58.1-54.9 58.1-96.9 0-43.6-25.4-81.2-62.2-98.9l-4-1.8c-43.2-198.9-201.6-354.7-401.9-394.1l-2.3-4.9c-17.8-35.6-54.4-60.3-97-60.8-43.4-.5-81.2 24.2-99.5 60.6l-3.3 5.7c-196.7 39.8-352.6 192.2-397.6 387l-3.2.7c-47.9 11.8-83.5 55-83.5 106.6 0 48.9 32 90.3 76.1 104.5l6.9 2.8c40.5 207.9 206.5 370.9 416 407z" stroke="#999" stroke-width="6"/><path d="m994.3 1369.8v326.1h44.1c0-40.3 32.7-73.6 73-73.6s73 32.7 73 73l63.8.6v-116.5h36.8v-85.8" stroke="#999" stroke-width="6"/><path d="m1753.3 1369.8v326.1h-38c0-40.3-32.7-72.3-73-72.3s-73 32.7-73 73l-58.9-.6v-115.3h-36.8v-87.1" stroke="#999" stroke-width="6"/><path d="m960.1 2219.5v-36.8h834.9v36.8" stroke="#999" stroke-width="6"/><path d="m959.9 2201.1h835.1" stroke="#999" stroke-width="6"/><path d="m1002.8 1698.4v359.2h746.8v-361.7" stroke="#999" stroke-width="6"/><path d="m1028.6 1696.5v320.7h168v-320.7" stroke="#999" stroke-width="6"/><path d="m1233.2 1696.5v320.7h287.1v-320.7" stroke="#999" stroke-width="6"/><path d="m1559.6 1696.5v320.7h163v-321.3" stroke="#999" stroke-width="6"/><path d="m908.4 1948.5h35.6v73.6h-35.6z" stroke="#999" stroke-width="6"/><path d="m1801.1 1948.5h35.6v73.6h-35.6z" stroke="#999" stroke-width="6"/><path d="m925.6 1948.5v73.6" stroke="#999" stroke-width="6"/><path d="m1819.5 1948.5v73.6" stroke="#999" stroke-width="6"/><path d="m1038.4 1695.9h684.2" stroke="#999" stroke-width="6"/><path d="m1284.9 1418.8h188.8" stroke="#999" stroke-width="6"/><path d="m1284.9 1455.6h188.8" stroke="#999" stroke-width="6"/><path d="m1284.9 1532.8h188.8" stroke="#999" stroke-width="6"/><path d="m1284.9 1547.5h188.8" stroke="#999" stroke-width="6"/><path d="m1038.4 1483.8v80.9h106.7v-27z" stroke="#999" stroke-width="6"/><path d="m1709.1 1483.8v80.9h-106.6v-27z" stroke="#999" stroke-width="6"/><path d="m1131.6 427.9 28.2 59 82.2-36.8-24.9-58.2" stroke="#999" stroke-width="6"/><path d="m1537.9 395.2-15.1 54.9 82.1 36.8 25.4-49.7" stroke="#999" stroke-width="6"/><path d="m892.6 1063.1 48.9-22 44.2 80.9-49.4 29.5" stroke="#999" stroke-width="6"/><path d="m1813.6 1143.6-53-25.2 38.1-79.7 55.9 18.8" stroke="#999" stroke-width="6"/><path d="m879.1 739.7 53.8 19.4 25.8-79.7-49.1-19.6" stroke="#999" stroke-width="6"/><path d="m1831.9 648.9-39.4 20.7 33.1 83.4 39.5-9.5" stroke="#999" stroke-width="6"/><path d="m937.1 609.5-47.1-30.7 164.3-164.3 31.1 41.2" stroke="#999" stroke-width="6"/><path d="m1685.8 474.6 25.8-60.1 163.1 175.4-61.3 28.4" stroke="#999" stroke-width="6"/><path d="m972.9 1203-47.3 25.7 152 138.6 19.6-53.1" stroke="#999" stroke-width="6"/><path d="m1665 1303.2 22.4 49 148.7-142.2-51.6-23.2" stroke="#999" stroke-width="6"/><path d="m1135.3 1336.6 17.1-44.1 100.6 40.4-16 43" stroke="#999" stroke-width="6"/><path d="m1514.2 1369.7-12.3-42.9 95.7-34.3 15.9 38.6" stroke="#999" stroke-width="6"/><path d="m2085.6 883.5c0-393.8-319.2-713-713-713s-713 319.2-713 713c0 217.3 97.2 411.8 250.4 542.6l-1.5 793.4h929.5l-2.7-793.4c153.1-130.7 250.3-325.3 250.3-542.6z" stroke="#fff" stroke-width="8"/><path d="m1373 852 487.7-487.7" stroke="#1bacfb" stroke-width="6"/></g><circle cx="1372.5" cy="851.5" fill="#1bacfb" r="13.5"/><path d="m2579.5 1137c0-53.7-43-97.4-96.4-98.5-16.9-13.8-38.5-22-62.1-22-54.4 0-98.5 44.1-98.5 98.5 0 40.7 24.7 75.7 60 90.7v.3c0 54.4 44.1 98.5 98.5 98.5s98.5-44.1 98.5-98.5c0-12.1-2.2-23.8-6.2-34.5 4-10.7 6.2-22.4 6.2-34.5z" fill="none" opacity=".31" stroke="#fff" stroke-miterlimit="10" stroke-width="5"/><path d="m2386.6 1350c0-26.8-21.4-48.5-48-49.1-8.4-6.9-19.2-11-30.9-11-27.1 0-49.1 22-49.1 49.1 0 20.3 12.3 37.7 29.9 45.2v.2c0 27.1 22 49.1 49.1 49.1s49.1-22 49.1-49.1c0-6-1.1-11.8-3.1-17.2 1.9-5.3 3-11.1 3-17.2z" fill="none" opacity=".31" stroke="#fff" stroke-miterlimit="10" stroke-width="5"/><path d="m2322.6 505c0-26.8-21.4-48.5-48-49.1-8.4-6.9-19.2-11-30.9-11-27.1 0-49.1 22-49.1 49.1 0 20.3 12.3 37.7 29.9 45.2v.2c0 27.1 22 49.1 49.1 49.1s49.1-22 49.1-49.1c0-6-1.1-11.8-3.1-17.2 1.9-5.3 3-11.1 3-17.2z" fill="none" opacity=".31" stroke="#fff" stroke-miterlimit="10" stroke-width="5"/><path d="m328.6 1865c0-26.8-21.4-48.5-48-49.1-8.4-6.9-19.2-11-30.9-11-27.1 0-49.1 22-49.1 49.1 0 20.3 12.3 37.7 29.9 45.2v.2c0 27.1 22 49.1 49.1 49.1s49.1-22 49.1-49.1c0-6-1.1-11.8-3.1-17.2 1.9-5.3 3-11.1 3-17.2z" fill="none" opacity=".31" stroke="#fff" stroke-miterlimit="10" stroke-width="5"/><path d="m497.5 1251c0-53.7-43-97.4-96.4-98.5-16.9-13.8-38.5-22-62.1-22-54.4 0-98.5 44.1-98.5 98.5 0 40.7 24.7 75.7 60 90.7v.3c0 54.4 44.1 98.5 98.5 98.5s98.5-44.1 98.5-98.5c0-12.1-2.2-23.8-6.2-34.5 4-10.7 6.2-22.4 6.2-34.5z" fill="none" opacity=".31" stroke="#fff" stroke-miterlimit="10" stroke-width="5"/><path d="m468.3 1457.2c-1.7 10.2.3 20.1 4.8 28.6-15.4 9.4-26.7 25.2-29.8 44.4-1.2 7.2-1.1 14.3.1 21.2-9.6 2.2-17.3 10-19 20.3-2.2 13.6 7 26.5 20.7 28.7h.3c-1.2 22.6 14.9 42.9 37.7 46.7 24.5 4 47.6-12.7 51.6-37.2.7-4.1.7-8.2.3-12.2 17.8-8.9 31.2-25.9 34.6-47 3.7-22.7-5.1-44.6-21.3-58.7 4.5-5.7 7.6-12.7 8.8-20.3 4-24.5-12.7-47.6-37.2-51.6-24.5-4.1-47.6 12.6-51.6 37.1z" fill="none" opacity=".31" stroke="#fff" stroke-miterlimit="10" stroke-width="5"/><path d="m136.5 1630c0 53.7 43 97.4 96.4 98.5 16.9 13.8 38.5 22 62.1 22 54.4 0 98.5-44.1 98.5-98.5 0-40.7-24.7-75.7-60-90.7 0-.1 0-.2 0-.3 0-54.4-44.1-98.5-98.5-98.5s-98.5 44.1-98.5 98.5c0 12.1 2.2 23.8 6.2 34.5-4 10.7-6.2 22.4-6.2 34.5z" fill="none" opacity=".31" stroke="#fff" stroke-miterlimit="10" stroke-width="5"/><path d="m496.5 265c0-53.7-43-97.4-96.4-98.5-16.9-13.8-38.5-22-62.1-22-54.4 0-98.5 44.1-98.5 98.5 0 40.7 24.7 75.7 60 90.7v.3c0 54.4 44.1 98.5 98.5 98.5s98.5-44.1 98.5-98.5c0-12.1-2.2-23.8-6.2-34.5 4-10.7 6.2-22.4 6.2-34.5z" fill="none" opacity=".31" stroke="#fff" stroke-miterlimit="10" stroke-width="5"/><path d="m2430.3 496.2c-1.7 10.2.3 20.1 4.8 28.6-15.4 9.4-26.7 25.2-29.8 44.4-1.2 7.2-1.1 14.3.1 21.2-9.6 2.2-17.3 10-19 20.3-2.2 13.6 7 26.5 20.7 28.7h.3c-1.2 22.6 14.9 42.9 37.7 46.7 24.5 4 47.6-12.7 51.6-37.2.7-4.1.7-8.2.3-12.2 17.8-8.9 31.2-25.9 34.6-47 3.7-22.7-5.1-44.6-21.3-58.7 4.5-5.7 7.6-12.7 8.8-20.3 4-24.5-12.7-47.6-37.2-51.6-24.5-4.1-47.6 12.6-51.6 37.1z" fill="none" opacity=".31" stroke="#fff" stroke-miterlimit="10" stroke-width="5"/><path d="m1825.1 1433.3c-124 102.3-282.9 163.7-456.1 163.7-171 0-327.9-59.8-451.1-159.7" style="opacity:.5;fill:none;stroke:#1bacfb;stroke-width:8;stroke-miterlimit:10;stroke-dasharray:12"/><path d="m2457.1 193.3c-22.2-20.3-53.7-23.9-79.3-11.6-1.2-1.2-2.4-2.4-3.7-3.6-40.1-36.6-102.4-33.7-139 6.4s-33.7 102.4 6.4 139c17.9 16.3 40.2 24.8 62.6 25.6 5.2 14.8 14.1 28.6 26.5 39.9 40.1 36.6 102.4 33.7 139-6.4 31.1-34.1 33.7-84.2 9.1-121 5.4-24.1-2-50.4-21.6-68.3z" fill="none" opacity=".31" stroke="#fff" stroke-miterlimit="10" stroke-width="5"/><path d="m2678.5 1395c0-34.5-28-62.5-62.5-62.5-30.7 0-56.2 22.1-61.5 51.3-6.2-4.6-13.8-7.3-22-7.3-20.4 0-37 16.6-37 37 0 8.3 2.8 16 7.4 22.2-4.9 5.5-9 11.7-11.9 18.6-8.2-3.7-17.4-5.8-27-5.8-36.2 0-65.5 29.3-65.5 65.5s29.3 65.5 65.5 65.5c26.3 0 48.9-15.5 59.4-37.8 8.9 4.4 19 6.8 29.6 6.8 37.3 0 67.5-30.2 67.5-67.5 0-8.3-1.5-16.2-4.2-23.5 34.4-.2 62.2-28.1 62.2-62.5z" fill="none" opacity=".31" stroke="#fff" stroke-miterlimit="10" stroke-width="5"/><path d="m634.5 411c0-33.4-27.1-60.5-60.5-60.5s-60.5 27.1-60.5 60.5c0 1.9.1 3.9.3 5.7-14.2 9.1-23.7 24.8-24.2 42.8-.2 0-.4 0-.5 0-36.2 0-65.5 29.3-65.5 65.5s29.3 65.5 65.5 65.5 65.5-29.3 65.5-65.5c0-4.4-.4-8.6-1.2-12.7 21.3-4.7 37.8-22.3 40.8-44.2 23.4-8.3 40.3-30.7 40.3-57.1z" fill="none" opacity=".31" stroke="#fff" stroke-miterlimit="10" stroke-width="5"/></svg>